<svg version="1.1" xmlns="http://www.w3.org/2000/svg" xmlns:xlink="http://www.w3.org/1999/xlink" xml:space="preserve" xmlns:serif="http://www.serif.com/" style="fill-rule:evenodd;clip-rule:evenodd;stroke-linejoin:round;stroke-miterlimit:2;" viewBox="12.5 0 75 100"><path d="M71.858,16.842c-14,-0 -14.316,-12.063 -30.571,-12.063c-8.783,0 -16.979,4.084 -20.454,7.059l0,-9.313c0,-1.394 -1.13,-2.525 -2.525,-2.525c-1.04,0 -2.243,0 -3.283,0c-0.669,0 -1.312,0.266 -1.785,0.74c-0.474,0.473 -0.74,1.116 -0.74,1.785c-0,15.535 -0,97.475 -0,97.475l8.333,0l0,-37.804c4.934,-3.413 12.413,-7.004 20.513,-7.004c15.35,-0 17.504,11.475 31.183,11.475c8.842,-0 14.971,-5.663 14.971,-5.663l-0,-50.117c-0,0 -6.754,5.955 -15.642,5.955Zm7.309,39.766c-1.667,0.863 -3.996,1.725 -6.638,1.725c-4.05,0 -6.241,-1.512 -9.879,-4.016c-4.567,-3.146 -10.817,-7.459 -21.304,-7.459c-8.246,0 -15.459,2.83 -20.513,5.58l0,-31.2c4.246,-3.759 11.938,-8.121 20.455,-8.121c5.554,-0 7.891,1.829 11.42,4.595c4.025,3.151 9.534,7.467 19.15,7.467c2.613,0 5.063,-0.358 7.309,-0.929l-0,32.358Z" style="fill:white;fill-rule:nonzero;"></path><path d="M17.905,18.435l0.397,38.196c0,0 26.791,-12.201 39.258,-0.663c12.467,11.539 25.596,4.377 25.729,1.592c0.133,-2.785 0,-37.799 0,-37.799c0,0 -18.17,3.714 -27.984,-5.172c-9.814,-8.886 -34.483,-3.316 -37.4,3.846Z" style="fill:none;"></path></svg>