<svg version="1.1" xmlns="http://www.w3.org/2000/svg" xmlns:xlink="http://www.w3.org/1999/xlink" xml:space="preserve" xmlns:serif="http://www.serif.com/" style="fill-rule:evenodd;clip-rule:evenodd;stroke-linejoin:round;stroke-miterlimit:2;" viewBox="12.5 0 75 100"><path d="M71.858,16.842c8.888,-0 15.642,-5.955 15.642,-5.955l-0,50.117c-0,0 -6.129,5.663 -14.971,5.663c-13.679,-0 -15.833,-11.475 -31.183,-11.475c-8.1,-0 -15.579,3.591 -20.513,7.004l0,37.804l-8.333,0l0,-97.475c-0,-0.669 0.266,-1.312 0.74,-1.785c0.473,-0.474 1.116,-0.74 1.785,-0.74l3.283,-0c1.395,0 2.525,1.131 2.525,2.525l0,9.313c3.475,-2.975 11.671,-7.059 20.455,-7.059c16.254,0 16.57,12.063 30.57,12.063Z" style="fill:red;"></path></svg>