<?xml version="1.0" encoding="UTF-8" standalone="no"?><!DOCTYPE svg PUBLIC "-//W3C//DTD SVG 1.1//EN" "http://www.w3.org/Graphics/SVG/1.1/DTD/svg11.dtd"><svg width="100%" height="100%" viewBox="0 0 100 100" version="1.1" xmlns="http://www.w3.org/2000/svg" xmlns:xlink="http://www.w3.org/1999/xlink" xml:space="preserve" xmlns:serif="http://www.serif.com/" style="fill-rule:evenodd;clip-rule:evenodd;stroke-linejoin:round;stroke-miterlimit:2;"><path d="M50,0c27.612,0 50,22.388 50,50c0,27.612 -22.388,50 -50,50c-27.612,0 -50,-22.388 -50,-50c0,-27.612 22.388,-50 50,-50Zm-6.848,30.426l-3.779,0c-0.642,0 -1.258,0.256 -1.713,0.71c-0.454,0.454 -0.709,1.07 -0.709,1.713l-0,34.302c-0,0.643 0.255,1.259 0.709,1.713c0.455,0.454 1.071,0.71 1.713,0.71l3.779,-0c0.643,-0 1.259,-0.256 1.713,-0.71c0.454,-0.454 0.71,-1.07 0.71,-1.713l-0,-34.302c-0,-0.643 -0.256,-1.259 -0.71,-1.713c-0.454,-0.454 -1.07,-0.71 -1.713,-0.71Zm17.475,0l-3.779,0c-0.643,0 -1.259,0.256 -1.713,0.71c-0.454,0.454 -0.71,1.07 -0.71,1.713l0,34.302c0,0.643 0.256,1.259 0.71,1.713c0.454,0.454 1.07,0.71 1.713,0.71l3.779,-0c0.642,-0 1.258,-0.256 1.713,-0.71c0.454,-0.454 0.709,-1.07 0.709,-1.713l0,-34.302c0,-0.643 -0.255,-1.259 -0.709,-1.713c-0.455,-0.454 -1.071,-0.71 -1.713,-0.71Z" style="fill:#fff;"/></svg>