<svg clip-rule="evenodd" fill-rule="evenodd" stroke-linejoin="round" stroke-miterlimit="2" version="1.1" viewBox="0 0 100 100" xml:space="preserve" xmlns="http://www.w3.org/2000/svg"><path d="m50 0c27.612 0 50 22.388 50 50s-22.388 50-50 50-50-22.388-50-50 22.388-50 50-50zm-6.848 30.426h-3.779c-0.642 0-1.258 0.256-1.713 0.71-0.454 0.454-0.709 1.07-0.709 1.713v34.302c-0 0.643 0.255 1.259 0.709 1.713 0.455 0.454 1.071 0.71 1.713 0.71h3.779c0.643-0 1.259-0.256 1.713-0.71s0.71-1.07 0.71-1.713v-34.302c-0-0.643-0.256-1.259-0.71-1.713s-1.07-0.71-1.713-0.71zm17.475 0h-3.779c-0.643 0-1.259 0.256-1.713 0.71s-0.71 1.07-0.71 1.713v34.302c0 0.643 0.256 1.259 0.71 1.713s1.07 0.71 1.713 0.71h3.779c0.642-0 1.258-0.256 1.713-0.71 0.454-0.454 0.709-1.07 0.709-1.713v-34.302c0-0.643-0.255-1.259-0.709-1.713-0.455-0.454-1.071-0.71-1.713-0.71z" fill="#fff"/></svg>