<svg clip-rule="evenodd" fill-rule="evenodd" stroke-linejoin="round" stroke-miterlimit="2" version="1.1" viewBox="0 0 100 100" xml:space="preserve" xmlns="http://www.w3.org/2000/svg"><path d="m50 0c-27.612 0-50 22.388-50 50s22.388 50 50 50 50-22.388 50-50-22.388-50-50-50zm-9.194 69.05c-0.695 0.375-1.536 0.357-2.213-0.048-0.678-0.404-1.093-1.135-1.093-1.924v-34.048c0-0.799 0.425-1.537 1.117-1.938 0.691-0.401 1.544-0.404 2.237-7e-3 7.071 4.042 23.444 13.404 30.643 17.52 0.706 0.404 1.138 1.16 1.128 1.974s-0.46 1.559-1.177 1.945c-7.241 3.905-23.615 12.736-30.642 16.526z" fill="#fff" fill-rule="nonzero"/></svg>