<?xml version="1.0" encoding="UTF-8" standalone="no"?><!DOCTYPE svg PUBLIC "-//W3C//DTD SVG 1.1//EN" "http://www.w3.org/Graphics/SVG/1.1/DTD/svg11.dtd"><svg width="100%" height="100%" viewBox="0 0 100 100" version="1.1" xmlns="http://www.w3.org/2000/svg" xmlns:xlink="http://www.w3.org/1999/xlink" xml:space="preserve" xmlns:serif="http://www.serif.com/" style="fill-rule:evenodd;clip-rule:evenodd;stroke-linejoin:round;stroke-miterlimit:2;"><path d="M50,0c-27.612,0 -50,22.388 -50,50c0,27.612 22.388,50 50,50c27.612,0 50,-22.388 50,-50c0,-27.612 -22.388,-50 -50,-50Zm-9.194,69.05c-0.695,0.375 -1.536,0.357 -2.213,-0.048c-0.678,-0.404 -1.093,-1.135 -1.093,-1.924c0,-7.881 0,-26.073 0,-34.048c0,-0.799 0.425,-1.537 1.117,-1.938c0.691,-0.401 1.544,-0.404 2.237,-0.007c7.071,4.042 23.444,13.404 30.643,17.52c0.706,0.404 1.138,1.16 1.128,1.974c-0.01,0.814 -0.46,1.559 -1.177,1.945c-7.241,3.905 -23.615,12.736 -30.642,16.526Z" style="fill:#fff;fill-rule:nonzero;"/></svg>