<svg xmlns="http://www.w3.org/2000/svg" width="182" height="382" viewBox="0 0 182 382" id="(1)">
    <g fill="white">
        <path id="0" d="m9.704 68.077v-35.9c-0-11.993 9.537-21.814 21.529-22.167 11.993-0.353 22.081 8.899 22.788 20.875 0.017 0.336-0.104 0.663-0.328 0.913-0.232 0.241-0.551 0.379-0.887 0.379h-3.67c-0.638 0-1.172-0.5-1.215-1.137-0.586-8.349-7.538-14.931-16.033-14.931-8.874 0-16.068 7.194-16.068 16.068v35.9c0 8.874 7.194 16.068 16.068 16.068s16.067-7.194 16.067-16.068v-10.381c0-0.672 0.543-1.224 1.224-1.224h3.661c0.672 0 1.224 0.543 1.224 1.224v10.381c0 7.926-4.23 15.241-11.088 19.204s-15.318 3.963-22.176 0c-6.866-3.963-11.096-11.287-11.096-19.204z" opacity="0.1" />
        <path id="1" d="m120.51 63.373c-0.698 0.835-0.905 1.981-0.534 3.006 0.37 1.026 1.266 1.775 2.334 1.965 1.069 0.189 2.171-0.207 2.869-1.043l33.712-40.173c1.085-1.292 0.913-3.214-0.379-4.299-1.292-1.086-3.214-0.913-4.299 0.379l-33.703 40.165z" opacity="0.1" />
        <path id="2" d="m173.49 194.58c0-1.69-1.37-3.05-3.05-3.05-1.69 0-3.05 1.37-3.05 3.05v51.82c0 1.81-0.62 3.57-1.76 4.99-18.23 22.52-45.65 35.62-74.63 35.62s-56.4-13.1-74.63-35.62c-1.14-1.42-1.76-3.18-1.76-4.99v-110.73c-0-1.81 0.62-3.57 1.76-4.98 18.09-22.37 45.25-35.44 74.01-35.63 28.76-0.18 56.09 12.54 74.46 34.67 0.7 0.83 1.79 1.24 2.86 1.06 1.08-0.18 1.98-0.93 2.35-1.95 0.38-1.02 0.19-2.17-0.51-3.01-19.54-23.53-48.61-37.07-79.19-36.87-30.6 0.2-59.48 14.1-78.72 37.89-2.03 2.5-3.13 5.62-3.13 8.83v110.72c-0 3.21 1.1 6.33 3.13 8.83 19.38 23.97 48.54 37.89 79.37 37.89s59.99-13.92 79.37-37.89c2.03-2.5 3.13-5.62 3.13-8.83v-51.82h-0.01z" opacity="0.1"/>
        <path id="3" d="m90.991 356.73c1.689 0 3.05-1.37 3.05-3.05v-41.879c0-1.689-1.37-3.05-3.05-3.05s-3.05 1.37-3.05 3.05v41.879c0 1.688 1.37 3.05 3.05 3.05z" opacity="0.1"/>
        <path id="4" d="m90.991 371c1.689 0 3.05-1.37 3.05-3.05v-1.835c0-1.688-1.37-3.05-3.05-3.05s-3.05 1.37-3.05 3.05v1.835c0 1.68 1.37 3.05 3.05 3.05z" opacity="0.1"/>
    </g>
</svg>
