<svg xmlns="http://www.w3.org/2000/svg" width="182" height="182" viewBox="0 0 182 182" id="(3)">
    <g transform="translate(-7 -9) scale(1.3)" style="fill: white">
        <rect id="9" width="4.25" height="4.25" x="57.59" y="11.6" />
        <rect id="10" width="4.25" height="4.25" x="62.7" y="11.6" />
        <rect id="11" width="4.25" height="4.25" x="67.81" y="11.6" />
        <rect id="12" width="4.25" height="4.25" x="72.92" y="11.6" />
        <rect id="13" width="4.25" height="4.25" x="78.03" y="11.6" />
        <rect id="14" width="4.25" height="4.25" x="83.14" y="11.6" />
        <rect id="15" width="4.25" height="4.25" x="88.25" y="11.6" />
        <rect id="34" width="4.25" height="4.25" x="57.59" y="16.71" />
        <rect id="35" width="4.25" height="4.25" x="62.7" y="16.71" />
        <rect id="36" width="4.25" height="4.25" x="67.81" y="16.71" />
        <rect id="37" width="4.25" height="4.25" x="72.92" y="16.71" />
        <rect id="38" width="4.25" height="4.25" x="78.03" y="16.71" />
        <rect id="39" width="4.25" height="4.25" x="83.14" y="16.71" />
        <rect id="40" width="4.25" height="4.25" x="88.25" y="16.71" />
        <rect id="32" width="4.25" height="4.25" x="47.37" y="16.71" />
        <rect id="33" width="4.25" height="4.25" x="52.48" y="16.71" />
        <rect id="41" width="4.25" height="4.25" x="93.36" y="16.71" />
        <rect id="42" width="4.25" height="4.25" x="98.47" y="16.71" />
        <rect id="584" width="4.25" height="4.25" x="57.59" y="129.13" />
        <rect id="585" width="4.25" height="4.25" x="62.7" y="129.13" />
        <rect id="586" width="4.25" height="4.25" x="67.81" y="129.13" />
        <rect id="587" width="4.25" height="4.25" x="72.92" y="129.13" />
        <rect id="588" width="4.25" height="4.25" x="78.03" y="129.13" />
        <rect id="589" width="4.25" height="4.25" x="83.14" y="129.13" />
        <rect id="590" width="4.25" height="4.25" x="88.25" y="129.13" />
        <rect id="582" width="4.25" height="4.25" x="47.37" y="129.13" />
        <rect id="583" width="4.25" height="4.25" x="52.48" y="129.13" />
        <rect id="591" width="4.25" height="4.25" x="93.36" y="129.13" />
        <rect id="592" width="4.25" height="4.25" x="98.47" y="129.13" />
        <rect id="59" width="4.25" height="4.25" x="57.59" y="21.82" />
        <rect id="60" width="4.25" height="4.25" x="62.7" y="21.82" />
        <rect id="61" width="4.25" height="4.25" x="67.81" y="21.82" />
        <rect id="62" width="4.25" height="4.25" x="72.92" y="21.82" />
        <rect id="63" width="4.25" height="4.25" x="78.03" y="21.82" />
        <rect id="64" width="4.25" height="4.25" x="83.14" y="21.82" />
        <rect id="65" width="4.25" height="4.25" x="88.25" y="21.82" />
        <rect id="57" width="4.25" height="4.25" x="47.37" y="21.82" />
        <rect id="58" width="4.25" height="4.25" x="52.48" y="21.82" />
        <rect id="66" width="4.25" height="4.25" x="93.36" y="21.82" />
        <rect id="67" width="4.25" height="4.25" x="98.47" y="21.82" />
        <rect id="55" width="4.25" height="4.25" x="37.15" y="21.82" />
        <rect id="56" width="4.25" height="4.25" x="42.26" y="21.82" />
        <rect id="68" width="4.25" height="4.25" x="103.58" y="21.82" />
        <rect id="69" width="4.25" height="4.25" x="108.69" y="21.82" />
        <rect id="559" width="4.25" height="4.25" x="57.59" y="124.02" />
        <rect id="560" width="4.25" height="4.25" x="62.7" y="124.02" />
        <rect id="561" width="4.25" height="4.25" x="67.81" y="124.02" />
        <rect id="562" width="4.25" height="4.25" x="72.92" y="124.02" />
        <rect id="563" width="4.25" height="4.25" x="78.03" y="124.02" />
        <rect id="564" width="4.25" height="4.25" x="83.14" y="124.02" />
        <rect id="565" width="4.25" height="4.25" x="88.25" y="124.02" />
        <rect id="557" width="4.25" height="4.25" x="47.37" y="124.02" />
        <rect id="558" width="4.25" height="4.25" x="52.48" y="124.02" />
        <rect id="566" width="4.25" height="4.25" x="93.36" y="124.02" />
        <rect id="567" width="4.25" height="4.25" x="98.47" y="124.02" />
        <rect id="555" width="4.25" height="4.25" x="37.15" y="124.02" />
        <rect id="556" width="4.25" height="4.25" x="42.26" y="124.02" />
        <rect id="568" width="4.25" height="4.25" x="103.58" y="124.02" />
        <rect id="569" width="4.25" height="4.25" x="108.69" y="124.02" />
        <rect id="84" width="4.25" height="4.25" x="57.59" y="26.93" />
        <rect id="85" width="4.25" height="4.25" x="62.7" y="26.93" />
        <rect id="86" width="4.25" height="4.25" x="67.81" y="26.93" />
        <rect id="87" width="4.25" height="4.25" x="72.92" y="26.93" />
        <rect id="88" width="4.25" height="4.25" x="78.03" y="26.93" />
        <rect id="89" width="4.25" height="4.25" x="83.14" y="26.93" />
        <rect id="90" width="4.25" height="4.25" x="88.25" y="26.93" />
        <rect id="82" width="4.25" height="4.25" x="47.37" y="26.93" />
        <rect id="83" width="4.25" height="4.25" x="52.48" y="26.93" />
        <rect id="91" width="4.25" height="4.25" x="93.36" y="26.93" />
        <rect id="92" width="4.25" height="4.25" x="98.47" y="26.93" />
        <rect id="80" width="4.25" height="4.25" x="37.15" y="26.93" />
        <rect id="81" width="4.25" height="4.25" x="42.26" y="26.93" />
        <rect id="93" width="4.25" height="4.25" x="103.58" y="26.93" />
        <rect id="94" width="4.25" height="4.25" x="108.69" y="26.93" />
        <rect id="79" width="4.25" height="4.25" x="32.04" y="26.93" />
        <rect id="95" width="4.25" height="4.25" x="113.8" y="26.93" />
        <rect id="109" width="4.25" height="4.25" x="57.59" y="32.04" />
        <rect id="110" width="4.25" height="4.25" x="62.7" y="32.04" />
        <rect id="111" width="4.25" height="4.25" x="67.81" y="32.04" />
        <rect id="112" width="4.25" height="4.25" x="72.92" y="32.04" />
        <rect id="113" width="4.25" height="4.25" x="78.03" y="32.04" />
        <rect id="114" width="4.25" height="4.25" x="83.14" y="32.04" />
        <rect id="115" width="4.25" height="4.25" x="88.25" y="32.04" />
        <rect id="107" width="4.25" height="4.25" x="47.37" y="32.04" />
        <rect id="108" width="4.25" height="4.25" x="52.48" y="32.04" />
        <rect id="116" width="4.25" height="4.25" x="93.36" y="32.04" />
        <rect id="117" width="4.25" height="4.25" x="98.47" y="32.04" />
        <rect id="105" width="4.25" height="4.25" x="37.15" y="32.04" />
        <rect id="106" width="4.25" height="4.25" x="42.26" y="32.04" />
        <rect id="118" width="4.25" height="4.25" x="103.58" y="32.04" />
        <rect id="119" width="4.25" height="4.25" x="108.69" y="32.04" />
        <rect id="104" width="4.25" height="4.25" x="32.04" y="32.04" />
        <rect id="120" width="4.25" height="4.25" x="113.8" y="32.04" />
        <rect id="103" width="4.25" height="4.25" x="26.93" y="32.04" />
        <rect id="121" width="4.25" height="4.25" x="118.91" y="32.04" />
        <rect id="509" width="4.25" height="4.25" x="57.59" y="113.8" />
        <rect id="510" width="4.25" height="4.25" x="62.7" y="113.8" />
        <rect id="511" width="4.25" height="4.25" x="67.81" y="113.8" />
        <rect id="512" width="4.25" height="4.25" x="72.92" y="113.8" />
        <rect id="513" width="4.25" height="4.25" x="78.03" y="113.8" />
        <rect id="514" width="4.25" height="4.25" x="83.14" y="113.8" />
        <rect id="515" width="4.25" height="4.25" x="88.25" y="113.8" />
        <rect id="507" width="4.25" height="4.25" x="47.37" y="113.8" />
        <rect id="508" width="4.25" height="4.25" x="52.48" y="113.8" />
        <rect id="516" width="4.25" height="4.25" x="93.36" y="113.8" />
        <rect id="517" width="4.25" height="4.25" x="98.47" y="113.8" />
        <rect id="505" width="4.25" height="4.25" x="37.15" y="113.8" />
        <rect id="506" width="4.25" height="4.25" x="42.26" y="113.8" />
        <rect id="518" width="4.25" height="4.25" x="103.58" y="113.8" />
        <rect id="519" width="4.25" height="4.25" x="108.69" y="113.8" />
        <rect id="504" width="4.25" height="4.25" x="32.04" y="113.8" />
        <rect id="520" width="4.25" height="4.25" x="113.8" y="113.8" />
        <rect id="503" width="4.25" height="4.25" x="26.93" y="113.8" />
        <rect id="521" width="4.25" height="4.25" x="118.91" y="113.8" />
        <rect id="134" width="4.25" height="4.25" x="57.59" y="37.15" />
        <rect id="135" width="4.25" height="4.25" x="62.7" y="37.15" />
        <rect id="136" width="4.25" height="4.25" x="67.81" y="37.15" />
        <rect id="137" width="4.25" height="4.25" x="72.92" y="37.15" />
        <rect id="138" width="4.25" height="4.25" x="78.03" y="37.15" />
        <rect id="139" width="4.25" height="4.25" x="83.14" y="37.15" />
        <rect id="140" width="4.25" height="4.25" x="88.25" y="37.15" />
        <rect id="132" width="4.25" height="4.25" x="47.37" y="37.15" />
        <rect id="133" width="4.25" height="4.25" x="52.48" y="37.15" />
        <rect id="141" width="4.25" height="4.25" x="93.36" y="37.15" />
        <rect id="142" width="4.25" height="4.25" x="98.47" y="37.15" />
        <rect id="130" width="4.25" height="4.25" x="37.15" y="37.15" />
        <rect id="131" width="4.25" height="4.25" x="42.26" y="37.15" />
        <rect id="143" width="4.25" height="4.25" x="103.58" y="37.15" />
        <rect id="144" width="4.25" height="4.25" x="108.69" y="37.15" />
        <rect id="129" width="4.25" height="4.25" x="32.04" y="37.15" />
        <rect id="145" width="4.25" height="4.25" x="113.8" y="37.15" />
        <rect id="128" width="4.25" height="4.25" x="26.93" y="37.15" />
        <rect id="146" width="4.25" height="4.25" x="118.91" y="37.15" />
        <rect id="127" width="4.25" height="4.25" x="21.82" y="37.15" />
        <rect id="147" width="4.25" height="4.25" x="124.02" y="37.15" />
        <rect id="459" width="4.25" height="4.25" x="57.59" y="103.58" />
        <rect id="460" width="4.25" height="4.25" x="62.7" y="103.58" />
        <rect id="461" width="4.25" height="4.25" x="67.81" y="103.58" />
        <rect id="462" width="4.25" height="4.25" x="72.92" y="103.58" />
        <rect id="463" width="4.25" height="4.25" x="78.03" y="103.58" />
        <rect id="464" width="4.25" height="4.25" x="83.14" y="103.58" />
        <rect id="465" width="4.25" height="4.25" x="88.25" y="103.58" />
        <rect id="457" width="4.25" height="4.25" x="47.37" y="103.58" />
        <rect id="458" width="4.25" height="4.25" x="52.48" y="103.58" />
        <rect id="466" width="4.25" height="4.25" x="93.36" y="103.58" />
        <rect id="467" width="4.25" height="4.25" x="98.47" y="103.58" />
        <rect id="455" width="4.25" height="4.25" x="37.15" y="103.58" />
        <rect id="456" width="4.25" height="4.25" x="42.26" y="103.58" />
        <rect id="468" width="4.25" height="4.25" x="103.58" y="103.58" />
        <rect id="469" width="4.25" height="4.25" x="108.69" y="103.58" />
        <rect id="454" width="4.25" height="4.25" x="32.04" y="103.58" />
        <rect id="470" width="4.25" height="4.25" x="113.8" y="103.58" />
        <rect id="453" width="4.25" height="4.25" x="26.93" y="103.58" />
        <rect id="471" width="4.25" height="4.25" x="118.91" y="103.58" />
        <rect id="452" width="4.25" height="4.25" x="21.82" y="103.58" />
        <rect id="472" width="4.25" height="4.25" x="124.02" y="103.58" />
        <rect id="484" width="4.25" height="4.25" x="57.59" y="108.69" />
        <rect id="485" width="4.25" height="4.25" x="62.7" y="108.69" />
        <rect id="486" width="4.25" height="4.25" x="67.81" y="108.69" />
        <rect id="487" width="4.25" height="4.25" x="72.92" y="108.69" />
        <rect id="488" width="4.25" height="4.25" x="78.03" y="108.69" />
        <rect id="489" width="4.25" height="4.25" x="83.14" y="108.69" />
        <rect id="490" width="4.25" height="4.25" x="88.25" y="108.69" />
        <rect id="482" width="4.25" height="4.25" x="47.37" y="108.69" />
        <rect id="483" width="4.25" height="4.25" x="52.48" y="108.69" />
        <rect id="491" width="4.25" height="4.25" x="93.36" y="108.69" />
        <rect id="492" width="4.25" height="4.25" x="98.47" y="108.69" />
        <rect id="480" width="4.25" height="4.25" x="37.15" y="108.69" />
        <rect id="481" width="4.25" height="4.25" x="42.26" y="108.69" />
        <rect id="493" width="4.25" height="4.25" x="103.58" y="108.69" />
        <rect id="494" width="4.25" height="4.25" x="108.69" y="108.69" />
        <rect id="479" width="4.25" height="4.25" x="32.04" y="108.69" />
        <rect id="495" width="4.25" height="4.25" x="113.8" y="108.69" />
        <rect id="478" width="4.25" height="4.25" x="26.93" y="108.69" />
        <rect id="496" width="4.25" height="4.25" x="118.91" y="108.69" />
        <rect id="477" width="4.25" height="4.25" x="21.82" y="108.69" />
        <rect id="497" width="4.25" height="4.25" x="124.02" y="108.69" />
        <rect id="159" width="4.25" height="4.25" x="57.59" y="42.26" />
        <rect id="160" width="4.25" height="4.25" x="62.7" y="42.26" />
        <rect id="161" width="4.25" height="4.25" x="67.81" y="42.26" />
        <rect id="162" width="4.25" height="4.25" x="72.92" y="42.26" />
        <rect id="163" width="4.25" height="4.25" x="78.03" y="42.26" />
        <rect id="164" width="4.25" height="4.25" x="83.14" y="42.26" />
        <rect id="165" width="4.25" height="4.25" x="88.25" y="42.26" />
        <rect id="157" width="4.25" height="4.25" x="47.37" y="42.26" />
        <rect id="158" width="4.25" height="4.25" x="52.48" y="42.26" />
        <rect id="166" width="4.25" height="4.25" x="93.36" y="42.26" />
        <rect id="167" width="4.25" height="4.25" x="98.47" y="42.26" />
        <rect id="155" width="4.25" height="4.25" x="37.15" y="42.26" />
        <rect id="156" width="4.25" height="4.25" x="42.26" y="42.26" />
        <rect id="168" width="4.25" height="4.25" x="103.58" y="42.26" />
        <rect id="169" width="4.25" height="4.25" x="108.69" y="42.26" />
        <rect id="154" width="4.25" height="4.25" x="32.04" y="42.26" />
        <rect id="170" width="4.25" height="4.25" x="113.8" y="42.26" />
        <rect id="153" width="4.25" height="4.25" x="26.93" y="42.26" />
        <rect id="171" width="4.25" height="4.25" x="118.91" y="42.26" />
        <rect id="152" width="4.25" height="4.25" x="21.82" y="42.26" />
        <rect id="172" width="4.25" height="4.25" x="124.02" y="42.26" />
        <rect id="184" width="4.25" height="4.25" x="57.59" y="47.37" />
        <rect id="185" width="4.25" height="4.25" x="62.7" y="47.37" />
        <rect id="186" width="4.25" height="4.25" x="67.81" y="47.37" />
        <rect id="187" width="4.25" height="4.25" x="72.92" y="47.37" />
        <rect id="188" width="4.25" height="4.25" x="78.03" y="47.37" />
        <rect id="189" width="4.25" height="4.25" x="83.14" y="47.37" />
        <rect id="190" width="4.25" height="4.25" x="88.25" y="47.37" />
        <rect id="182" width="4.25" height="4.25" x="47.37" y="47.37" />
        <rect id="183" width="4.25" height="4.25" x="52.48" y="47.37" />
        <rect id="191" width="4.25" height="4.25" x="93.36" y="47.37" />
        <rect id="192" width="4.25" height="4.25" x="98.47" y="47.37" />
        <rect id="180" width="4.25" height="4.25" x="37.15" y="47.37" />
        <rect id="181" width="4.25" height="4.25" x="42.26" y="47.37" />
        <rect id="193" width="4.25" height="4.25" x="103.58" y="47.37" />
        <rect id="194" width="4.25" height="4.25" x="108.69" y="47.37" />
        <rect id="179" width="4.25" height="4.25" x="32.04" y="47.37" />
        <rect id="195" width="4.25" height="4.25" x="113.8" y="47.37" />
        <rect id="178" width="4.25" height="4.25" x="26.93" y="47.37" />
        <rect id="196" width="4.25" height="4.25" x="118.91" y="47.37" />
        <rect id="177" width="4.25" height="4.25" x="21.82" y="47.37" />
        <rect id="197" width="4.25" height="4.25" x="124.02" y="47.37" />
        <rect id="176" width="4.25" height="4.25" x="16.71" y="47.37" />
        <rect id="198" width="4.25" height="4.25" x="129.13" y="47.37" />
        <rect id="409" width="4.25" height="4.25" x="57.59" y="93.36" />
        <rect id="410" width="4.25" height="4.25" x="62.7" y="93.36" />
        <rect id="411" width="4.25" height="4.25" x="67.81" y="93.36" />
        <rect id="412" width="4.25" height="4.25" x="72.92" y="93.36" />
        <rect id="413" width="4.25" height="4.25" x="78.03" y="93.36" />
        <rect id="414" width="4.25" height="4.25" x="83.14" y="93.36" />
        <rect id="415" width="4.25" height="4.25" x="88.25" y="93.36" />
        <rect id="407" width="4.25" height="4.25" x="47.37" y="93.36" />
        <rect id="408" width="4.25" height="4.25" x="52.48" y="93.36" />
        <rect id="416" width="4.25" height="4.25" x="93.36" y="93.36" />
        <rect id="417" width="4.25" height="4.25" x="98.47" y="93.36" />
        <rect id="405" width="4.25" height="4.25" x="37.15" y="93.36" />
        <rect id="406" width="4.25" height="4.25" x="42.26" y="93.36" />
        <rect id="418" width="4.25" height="4.25" x="103.58" y="93.36" />
        <rect id="419" width="4.25" height="4.25" x="108.69" y="93.36" />
        <rect id="404" width="4.25" height="4.25" x="32.04" y="93.36" />
        <rect id="420" width="4.25" height="4.25" x="113.8" y="93.36" />
        <rect id="403" width="4.25" height="4.25" x="26.93" y="93.36" />
        <rect id="421" width="4.25" height="4.25" x="118.91" y="93.36" />
        <rect id="402" width="4.25" height="4.25" x="21.82" y="93.36" />
        <rect id="422" width="4.25" height="4.25" x="124.02" y="93.36" />
        <rect id="401" width="4.25" height="4.25" x="16.71" y="93.36" />
        <rect id="423" width="4.25" height="4.25" x="129.13" y="93.36" />
        <rect id="434" width="4.25" height="4.25" x="57.59" y="98.47" />
        <rect id="435" width="4.25" height="4.25" x="62.7" y="98.47" />
        <rect id="436" width="4.25" height="4.25" x="67.81" y="98.47" />
        <rect id="437" width="4.25" height="4.25" x="72.92" y="98.47" />
        <rect id="438" width="4.25" height="4.25" x="78.03" y="98.47" />
        <rect id="439" width="4.25" height="4.25" x="83.14" y="98.47" />
        <rect id="440" width="4.25" height="4.25" x="88.25" y="98.47" />
        <rect id="432" width="4.25" height="4.25" x="47.37" y="98.47" />
        <rect id="433" width="4.25" height="4.25" x="52.48" y="98.47" />
        <rect id="441" width="4.25" height="4.25" x="93.36" y="98.47" />
        <rect id="442" width="4.25" height="4.25" x="98.47" y="98.47" />
        <rect id="430" width="4.25" height="4.25" x="37.15" y="98.47" />
        <rect id="431" width="4.25" height="4.25" x="42.26" y="98.47" />
        <rect id="443" width="4.25" height="4.25" x="103.58" y="98.47" />
        <rect id="444" width="4.25" height="4.25" x="108.69" y="98.47" />
        <rect id="429" width="4.25" height="4.25" x="32.04" y="98.47" />
        <rect id="445" width="4.25" height="4.25" x="113.8" y="98.47" />
        <rect id="428" width="4.25" height="4.25" x="26.93" y="98.47" />
        <rect id="446" width="4.25" height="4.25" x="118.91" y="98.47" />
        <rect id="427" width="4.25" height="4.25" x="21.82" y="98.47" />
        <rect id="447" width="4.25" height="4.25" x="124.02" y="98.47" />
        <rect id="426" width="4.25" height="4.25" x="16.71" y="98.47" />
        <rect id="448" width="4.25" height="4.25" x="129.13" y="98.47" />
        <rect id="209" width="4.25" height="4.25" x="57.59" y="52.48" />
        <rect id="210" width="4.25" height="4.25" x="62.7" y="52.48" />
        <rect id="211" width="4.25" height="4.25" x="67.81" y="52.48" />
        <rect id="212" width="4.25" height="4.25" x="72.92" y="52.48" />
        <rect id="213" width="4.25" height="4.25" x="78.03" y="52.48" />
        <rect id="214" width="4.25" height="4.25" x="83.14" y="52.48" />
        <rect id="215" width="4.25" height="4.25" x="88.25" y="52.48" />
        <rect id="207" width="4.25" height="4.25" x="47.37" y="52.48" />
        <rect id="208" width="4.25" height="4.25" x="52.48" y="52.48" />
        <rect id="216" width="4.25" height="4.25" x="93.36" y="52.48" />
        <rect id="217" width="4.25" height="4.25" x="98.47" y="52.48" />
        <rect id="205" width="4.25" height="4.25" x="37.15" y="52.48" />
        <rect id="206" width="4.25" height="4.25" x="42.26" y="52.48" />
        <rect id="218" width="4.25" height="4.25" x="103.58" y="52.48" />
        <rect id="219" width="4.25" height="4.25" x="108.69" y="52.48" />
        <rect id="204" width="4.25" height="4.25" x="32.04" y="52.48" />
        <rect id="220" width="4.25" height="4.25" x="113.8" y="52.48" />
        <rect id="203" width="4.25" height="4.25" x="26.93" y="52.48" />
        <rect id="221" width="4.25" height="4.25" x="118.91" y="52.48" />
        <rect id="202" width="4.25" height="4.25" x="21.82" y="52.48" />
        <rect id="222" width="4.25" height="4.25" x="124.02" y="52.48" />
        <rect id="201" width="4.25" height="4.25" x="16.71" y="52.48" />
        <rect id="223" width="4.25" height="4.25" x="129.13" y="52.48" />
        <rect id="234" width="4.25" height="4.25" x="57.59" y="57.59" />
        <rect id="235" width="4.25" height="4.25" x="62.7" y="57.59" />
        <rect id="236" width="4.25" height="4.25" x="67.81" y="57.59" />
        <rect id="237" width="4.25" height="4.25" x="72.92" y="57.59" />
        <rect id="238" width="4.25" height="4.25" x="78.03" y="57.59" />
        <rect id="239" width="4.25" height="4.25" x="83.14" y="57.59" />
        <rect id="240" width="4.25" height="4.25" x="88.25" y="57.59" />
        <rect id="232" width="4.25" height="4.25" x="47.37" y="57.59" />
        <rect id="233" width="4.25" height="4.25" x="52.48" y="57.59" />
        <rect id="241" width="4.25" height="4.25" x="93.36" y="57.59" />
        <rect id="242" width="4.25" height="4.25" x="98.47" y="57.59" />
        <rect id="230" width="4.25" height="4.25" x="37.15" y="57.59" />
        <rect id="231" width="4.25" height="4.25" x="42.26" y="57.59" />
        <rect id="243" width="4.25" height="4.25" x="103.58" y="57.59" />
        <rect id="244" width="4.25" height="4.25" x="108.69" y="57.59" />
        <rect id="229" width="4.25" height="4.25" x="32.04" y="57.59" />
        <rect id="245" width="4.25" height="4.25" x="113.8" y="57.59" />
        <rect id="228" width="4.25" height="4.25" x="26.93" y="57.59" />
        <rect id="246" width="4.25" height="4.25" x="118.91" y="57.59" />
        <rect id="227" width="4.25" height="4.25" x="21.82" y="57.59" />
        <rect id="247" width="4.25" height="4.25" x="124.02" y="57.59" />
        <rect id="226" width="4.25" height="4.25" x="16.71" y="57.59" />
        <rect id="248" width="4.25" height="4.25" x="129.13" y="57.59" />
        <rect id="225" width="4.25" height="4.25" x="11.6" y="57.59" />
        <rect id="249" width="4.25" height="4.25" x="134.24" y="57.59" />
        <rect id="259" width="4.25" height="4.25" x="57.59" y="62.7" />
        <rect id="260" width="4.25" height="4.25" x="62.7" y="62.7" />
        <rect id="261" width="4.25" height="4.25" x="67.81" y="62.7" />
        <rect id="262" width="4.25" height="4.25" x="72.92" y="62.7" />
        <rect id="263" width="4.25" height="4.25" x="78.03" y="62.7" />
        <rect id="264" width="4.25" height="4.25" x="83.14" y="62.7" />
        <rect id="265" width="4.25" height="4.25" x="88.25" y="62.7" />
        <rect id="257" width="4.25" height="4.25" x="47.37" y="62.7" />
        <rect id="258" width="4.25" height="4.25" x="52.48" y="62.7" />
        <rect id="266" width="4.25" height="4.25" x="93.36" y="62.7" />
        <rect id="267" width="4.25" height="4.25" x="98.47" y="62.7" />
        <rect id="255" width="4.25" height="4.25" x="37.15" y="62.7" />
        <rect id="256" width="4.25" height="4.25" x="42.26" y="62.7" />
        <rect id="268" width="4.25" height="4.25" x="103.58" y="62.7" />
        <rect id="269" width="4.25" height="4.25" x="108.69" y="62.7" />
        <rect id="254" width="4.25" height="4.25" x="32.04" y="62.7" />
        <rect id="270" width="4.25" height="4.25" x="113.8" y="62.7" />
        <rect id="253" width="4.25" height="4.25" x="26.93" y="62.7" />
        <rect id="271" width="4.25" height="4.25" x="118.91" y="62.7" />
        <rect id="252" width="4.25" height="4.25" x="21.82" y="62.7" />
        <rect id="272" width="4.25" height="4.25" x="124.02" y="62.7" />
        <rect id="251" width="4.25" height="4.25" x="16.71" y="62.7" />
        <rect id="273" width="4.25" height="4.25" x="129.13" y="62.7" />
        <rect id="250" width="4.25" height="4.25" x="11.6" y="62.7" />
        <rect id="274" width="4.25" height="4.25" x="134.24" y="62.7" />
        <rect id="284" width="4.25" height="4.25" x="57.59" y="67.81" />
        <rect id="285" width="4.25" height="4.25" x="62.7" y="67.81" />
        <rect id="286" width="4.25" height="4.25" x="67.81" y="67.81" />
        <rect id="287" width="4.25" height="4.25" x="72.92" y="67.81" />
        <rect id="288" width="4.25" height="4.25" x="78.03" y="67.81" />
        <rect id="289" width="4.25" height="4.25" x="83.14" y="67.81" />
        <rect id="290" width="4.25" height="4.25" x="88.25" y="67.81" />
        <rect id="282" width="4.25" height="4.25" x="47.37" y="67.81" />
        <rect id="283" width="4.25" height="4.25" x="52.48" y="67.81" />
        <rect id="291" width="4.25" height="4.25" x="93.36" y="67.81" />
        <rect id="292" width="4.25" height="4.25" x="98.47" y="67.81" />
        <rect id="280" width="4.25" height="4.25" x="37.15" y="67.81" />
        <rect id="281" width="4.25" height="4.25" x="42.26" y="67.81" />
        <rect id="293" width="4.25" height="4.25" x="103.58" y="67.81" />
        <rect id="294" width="4.25" height="4.25" x="108.69" y="67.81" />
        <rect id="279" width="4.25" height="4.25" x="32.04" y="67.81" />
        <rect id="295" width="4.25" height="4.25" x="113.8" y="67.81" />
        <rect id="278" width="4.25" height="4.25" x="26.93" y="67.81" />
        <rect id="296" width="4.25" height="4.25" x="118.91" y="67.81" />
        <rect id="277" width="4.25" height="4.25" x="21.82" y="67.81" />
        <rect id="297" width="4.25" height="4.25" x="124.02" y="67.81" />
        <rect id="276" width="4.25" height="4.25" x="16.71" y="67.81" />
        <rect id="298" width="4.25" height="4.25" x="129.13" y="67.81" />
        <rect id="275" width="4.25" height="4.25" x="11.6" y="67.81" />
        <rect id="299" width="4.25" height="4.25" x="134.24" y="67.81" />
        <rect id="309" width="4.25" height="4.25" x="57.59" y="72.92" />
        <rect id="310" width="4.25" height="4.25" x="62.7" y="72.92" />
        <rect id="311" width="4.25" height="4.25" x="67.81" y="72.92" />
        <rect id="312" width="4.25" height="4.25" x="72.92" y="72.92" />
        <rect id="313" width="4.25" height="4.25" x="78.03" y="72.92" />
        <rect id="314" width="4.25" height="4.25" x="83.14" y="72.92" />
        <rect id="315" width="4.25" height="4.25" x="88.25" y="72.92" />
        <rect id="307" width="4.25" height="4.25" x="47.37" y="72.92" />
        <rect id="308" width="4.25" height="4.25" x="52.48" y="72.92" />
        <rect id="316" width="4.25" height="4.25" x="93.36" y="72.92" />
        <rect id="317" width="4.25" height="4.25" x="98.47" y="72.92" />
        <rect id="305" width="4.25" height="4.25" x="37.15" y="72.92" />
        <rect id="306" width="4.25" height="4.25" x="42.26" y="72.92" />
        <rect id="318" width="4.25" height="4.25" x="103.58" y="72.92" />
        <rect id="319" width="4.25" height="4.25" x="108.69" y="72.92" />
        <rect id="304" width="4.25" height="4.25" x="32.04" y="72.92" />
        <rect id="320" width="4.25" height="4.25" x="113.8" y="72.92" />
        <rect id="303" width="4.25" height="4.25" x="26.93" y="72.92" />
        <rect id="321" width="4.25" height="4.25" x="118.91" y="72.92" />
        <rect id="302" width="4.25" height="4.25" x="21.82" y="72.92" />
        <rect id="322" width="4.25" height="4.25" x="124.02" y="72.92" />
        <rect id="301" width="4.25" height="4.25" x="16.71" y="72.92" />
        <rect id="323" width="4.25" height="4.25" x="129.13" y="72.92" />
        <rect id="300" width="4.25" height="4.25" x="11.6" y="72.92" />
        <rect id="324" width="4.25" height="4.25" x="134.24" y="72.92" />
        <rect id="334" width="4.25" height="4.25" x="57.59" y="78.03" />
        <rect id="335" width="4.25" height="4.25" x="62.7" y="78.03" />
        <rect id="336" width="4.25" height="4.25" x="67.81" y="78.03" />
        <rect id="337" width="4.25" height="4.25" x="72.92" y="78.03" />
        <rect id="338" width="4.25" height="4.25" x="78.03" y="78.03" />
        <rect id="339" width="4.25" height="4.25" x="83.14" y="78.03" />
        <rect id="340" width="4.25" height="4.25" x="88.25" y="78.03" />
        <rect id="332" width="4.25" height="4.25" x="47.37" y="78.03" />
        <rect id="333" width="4.25" height="4.25" x="52.48" y="78.03" />
        <rect id="341" width="4.25" height="4.25" x="93.36" y="78.03" />
        <rect id="342" width="4.25" height="4.25" x="98.47" y="78.03" />
        <rect id="330" width="4.25" height="4.25" x="37.15" y="78.03" />
        <rect id="331" width="4.25" height="4.25" x="42.26" y="78.03" />
        <rect id="343" width="4.25" height="4.25" x="103.58" y="78.03" />
        <rect id="344" width="4.25" height="4.25" x="108.69" y="78.03" />
        <rect id="329" width="4.25" height="4.25" x="32.04" y="78.03" />
        <rect id="345" width="4.25" height="4.25" x="113.8" y="78.03" />
        <rect id="328" width="4.25" height="4.25" x="26.93" y="78.03" />
        <rect id="346" width="4.25" height="4.25" x="118.91" y="78.03" />
        <rect id="327" width="4.25" height="4.25" x="21.82" y="78.03" />
        <rect id="347" width="4.25" height="4.25" x="124.02" y="78.03" />
        <rect id="326" width="4.25" height="4.25" x="16.71" y="78.03" />
        <rect id="348" width="4.25" height="4.25" x="129.13" y="78.03" />
        <rect id="325" width="4.25" height="4.25" x="11.6" y="78.03" />
        <rect id="349" width="4.25" height="4.25" x="134.24" y="78.03" />
        <rect id="359" width="4.25" height="4.25" x="57.59" y="83.14" />
        <rect id="360" width="4.25" height="4.25" x="62.7" y="83.14" />
        <rect id="361" width="4.25" height="4.25" x="67.81" y="83.14" />
        <rect id="362" width="4.25" height="4.25" x="72.92" y="83.14" />
        <rect id="363" width="4.25" height="4.25" x="78.03" y="83.14" />
        <rect id="364" width="4.25" height="4.25" x="83.14" y="83.14" />
        <rect id="365" width="4.25" height="4.25" x="88.25" y="83.14" />
        <rect id="357" width="4.25" height="4.25" x="47.37" y="83.14" />
        <rect id="358" width="4.25" height="4.25" x="52.48" y="83.14" />
        <rect id="366" width="4.25" height="4.25" x="93.36" y="83.14" />
        <rect id="367" width="4.25" height="4.25" x="98.47" y="83.14" />
        <rect id="355" width="4.25" height="4.25" x="37.15" y="83.14" />
        <rect id="356" width="4.25" height="4.25" x="42.26" y="83.14" />
        <rect id="368" width="4.25" height="4.25" x="103.58" y="83.14" />
        <rect id="369" width="4.25" height="4.25" x="108.69" y="83.14" />
        <rect id="354" width="4.25" height="4.25" x="32.04" y="83.14" />
        <rect id="370" width="4.25" height="4.25" x="113.8" y="83.14" />
        <rect id="353" width="4.25" height="4.25" x="26.93" y="83.14" />
        <rect id="371" width="4.25" height="4.25" x="118.91" y="83.14" />
        <rect id="352" width="4.25" height="4.25" x="21.82" y="83.14" />
        <rect id="372" width="4.25" height="4.25" x="124.02" y="83.14" />
        <rect id="351" width="4.25" height="4.25" x="16.71" y="83.14" />
        <rect id="373" width="4.25" height="4.25" x="129.13" y="83.14" />
        <rect id="350" width="4.25" height="4.25" x="11.6" y="83.14" />
        <rect id="374" width="4.25" height="4.25" x="134.24" y="83.14" />
        <rect id="384" width="4.25" height="4.25" x="57.59" y="88.25" />
        <rect id="385" width="4.25" height="4.25" x="62.7" y="88.25" />
        <rect id="386" width="4.25" height="4.25" x="67.81" y="88.25" />
        <rect id="387" width="4.25" height="4.25" x="72.92" y="88.25" />
        <rect id="388" width="4.25" height="4.25" x="78.03" y="88.25" />
        <rect id="389" width="4.25" height="4.25" x="83.14" y="88.25" />
        <rect id="390" width="4.25" height="4.25" x="88.25" y="88.25" />
        <rect id="382" width="4.25" height="4.25" x="47.37" y="88.25" />
        <rect id="383" width="4.25" height="4.25" x="52.48" y="88.25" />
        <rect id="391" width="4.25" height="4.25" x="93.36" y="88.25" />
        <rect id="392" width="4.25" height="4.25" x="98.47" y="88.25" />
        <rect id="380" width="4.25" height="4.25" x="37.15" y="88.25" />
        <rect id="381" width="4.25" height="4.25" x="42.26" y="88.25" />
        <rect id="393" width="4.25" height="4.25" x="103.58" y="88.25" />
        <rect id="394" width="4.25" height="4.25" x="108.69" y="88.25" />
        <rect id="379" width="4.25" height="4.25" x="32.04" y="88.25" />
        <rect id="395" width="4.25" height="4.25" x="113.8" y="88.25" />
        <rect id="378" width="4.25" height="4.25" x="26.93" y="88.25" />
        <rect id="396" width="4.25" height="4.25" x="118.91" y="88.25" />
        <rect id="377" width="4.25" height="4.25" x="21.82" y="88.25" />
        <rect id="397" width="4.25" height="4.25" x="124.02" y="88.25" />
        <rect id="376" width="4.25" height="4.25" x="16.71" y="88.25" />
        <rect id="398" width="4.25" height="4.25" x="129.13" y="88.25" />
        <rect id="375" width="4.25" height="4.25" x="11.6" y="88.25" />
        <rect id="399" width="4.25" height="4.25" x="134.24" y="88.25" />
        <rect id="534" width="4.25" height="4.25" x="57.59" y="118.91" />
        <rect id="535" width="4.25" height="4.25" x="62.7" y="118.91" />
        <rect id="536" width="4.25" height="4.25" x="67.81" y="118.91" />
        <rect id="537" width="4.25" height="4.25" x="72.92" y="118.91" />
        <rect id="538" width="4.25" height="4.25" x="78.03" y="118.91" />
        <rect id="539" width="4.25" height="4.25" x="83.14" y="118.91" />
        <rect id="540" width="4.25" height="4.25" x="88.25" y="118.91" />
        <rect id="532" width="4.25" height="4.25" x="47.37" y="118.91" />
        <rect id="533" width="4.25" height="4.25" x="52.48" y="118.91" />
        <rect id="541" width="4.25" height="4.25" x="93.36" y="118.91" />
        <rect id="542" width="4.25" height="4.25" x="98.47" y="118.91" />
        <rect id="530" width="4.25" height="4.25" x="37.15" y="118.91" />
        <rect id="531" width="4.25" height="4.25" x="42.26" y="118.91" />
        <rect id="543" width="4.25" height="4.25" x="103.58" y="118.91" />
        <rect id="544" width="4.25" height="4.25" x="108.69" y="118.91" />
        <rect id="529" width="4.25" height="4.25" x="32.04" y="118.91" />
        <rect id="545" width="4.25" height="4.25" x="113.8" y="118.91" />
        <rect id="609" width="4.25" height="4.25" x="57.59" y="134.24" />
        <rect id="610" width="4.25" height="4.25" x="62.7" y="134.24" />
        <rect id="611" width="4.25" height="4.25" x="67.81" y="134.24" />
        <rect id="612" width="4.25" height="4.25" x="72.92" y="134.24" />
        <rect id="613" width="4.25" height="4.25" x="78.03" y="134.24" />
        <rect id="614" width="4.25" height="4.25" x="83.14" y="134.24" />
        <rect id="615" width="4.25" height="4.25" x="88.25" y="134.24" />
    </g>
</svg>
