<svg xmlns="http://www.w3.org/2000/svg" width="182" height="382" viewBox="0 0 182 382" id="(2)">
    <defs>
        <linearGradient id="gradient-3-18" x1="81.92%" y1="57.36%" x2="0%" y2="0%">
            <stop id="grad-3" offset="0%" stop-color="white" stop-opacity="0.1"></stop>
            <stop id="grad-4" offset="6.666667%" stop-color="white" stop-opacity="0.1"></stop>
            <stop id="grad-5" offset="13.333333%" stop-color="white" stop-opacity="0.1"></stop>
            <stop id="grad-6" offset="20%" stop-color="white" stop-opacity="0.1"></stop>
            <stop id="grad-7" offset="26.666667%" stop-color="white" stop-opacity="0.1"></stop>
            <stop id="grad-8" offset="33.333333%" stop-color="white" stop-opacity="0.1"></stop>
            <stop id="grad-9" offset="40%" stop-color="white" stop-opacity="0.1"></stop>
            <stop id="grad-10" offset="46.666667%" stop-color="white" stop-opacity="0.1"></stop>
            <stop id="grad-11" offset="53.333333%" stop-color="white" stop-opacity="0.1"></stop>
            <stop id="grad-12" offset="60%" stop-color="white" stop-opacity="0.1"></stop>
            <stop id="grad-13" offset="66.666667%" stop-color="white" stop-opacity="0.1"></stop>
            <stop id="grad-14" offset="73.333333%" stop-color="white" stop-opacity="0.1"></stop>
            <stop id="grad-15" offset="80%" stop-color="white" stop-opacity="0.1"></stop>
            <stop id="grad-16" offset="86.666667%" stop-color="white" stop-opacity="0.1"></stop>
            <stop id="grad-17" offset="93.333333%" stop-color="white" stop-opacity="0.1"></stop>
            <stop id="grad-18" offset="100%" stop-color="white" stop-opacity="0.1"></stop>
        </linearGradient>
        <linearGradient id="gradient-25-32" x1="0%" y1="100%" x2="0%" y2="0%">
            <stop id="grad-25" offset="0%" stop-color="white" stop-opacity="0.1"></stop>
            <stop id="grad-26" offset="14.285714%" stop-color="white" stop-opacity="0.1"></stop>
            <stop id="grad-27" offset="28.571429%" stop-color="white" stop-opacity="0.1"></stop>
            <stop id="grad-28" offset="42.857143%" stop-color="white" stop-opacity="0.1"></stop>
            <stop id="grad-29" offset="57.142857%" stop-color="white" stop-opacity="0.1"></stop>
            <stop id="grad-30" offset="71.428571%" stop-color="white" stop-opacity="0.1"></stop>
            <stop id="grad-31" offset="85.714286%" stop-color="white" stop-opacity="0.1"></stop>
            <stop id="grad-32" offset="100%" stop-color="white" stop-opacity="0.1"></stop>
        </linearGradient>
    </defs>
    <g fill="white">
        <path id="0" opacity="0.1"
            d="M17.883,51.449l-0,-25.117c-0,-9.107 7.233,-16.58 16.353,-16.892c9.119,-0.311 16.836,6.662 17.46,15.751c0.042,0.64 0.578,1.141 1.219,1.141l3.686,0c0.337,0 0.657,-0.139 0.891,-0.381c0.234,-0.241 0.354,-0.569 0.337,-0.906c-0.71,-12.451 -11.195,-22.077 -23.671,-21.73c-12.477,0.354 -22.41,10.549 -22.41,23.017l0,25.117c0,0.674 0.546,1.226 1.229,1.226l3.677,0c0.675,0 1.229,-0.544 1.229,-1.226Z" />
        <path id="1" opacity="0.1"
            d="M51.975,48.161c-0,-0.674 0.544,-1.226 1.228,-1.226l3.677,-0c0.675,-0 1.229,0.544 1.229,1.226l0,17.817c0,8.657 -4.863,16.589 -12.589,20.511c-7.726,3.931 -17.01,3.197 -24.018,-1.901c-0.277,-0.198 -0.449,-0.501 -0.493,-0.829c-0.043,-0.329 0.052,-0.674 0.268,-0.933l2.336,-2.851c0.407,-0.502 1.134,-0.597 1.661,-0.225c5.166,3.663 11.94,4.139 17.564,1.235c5.624,-2.903 9.154,-8.692 9.154,-15.016l-0,-17.816l-0.017,0.008Z" />
        <path id="2" opacity="0.1"
            d="M154.368,14.853c1.09,-1.297 3.02,-1.461 4.318,-0.381c1.297,1.08 1.462,3.015 0.38,4.312l-33.362,39.701c-0.519,0.623 -1.271,1.011 -2.085,1.08c-0.814,0.069 -1.618,-0.181 -2.241,-0.708l-1.41,-1.184c-0.251,-0.207 -0.407,-0.51 -0.433,-0.83c-0.026,-0.319 0.069,-0.647 0.286,-0.889l34.539,-41.11l0.008,0.009Z" />
        <path id="3-18"
            d="M74.634,89.533c35.857,-5.279 71.801,8.96 94.341,37.376c1.054,1.322 0.829,3.249 -0.491,4.303c-1.32,1.055 -3.245,0.83 -4.298,-0.492c-21.177,-26.707 -54.964,-40.09 -88.654,-35.13c-1.079,0.155 -2.166,-0.268 -2.84,-1.132c-0.673,-0.864 -0.845,-2.013 -0.448,-3.032c0.406,-1.02 1.321,-1.746 2.398,-1.901l-0.008,0.008Z" style="fill: url(#gradient-3-18);"/>
        <path id="19" opacity="0.1"
            d="M49.732,97.623c0.995,-0.458 2.163,-0.345 3.054,0.293c0.891,0.631 1.375,1.695 1.272,2.783c-0.104,1.089 -0.78,2.039 -1.783,2.497c-13.756,6.264 -25.835,15.699 -35.231,27.527c-0.683,0.855 -1.764,1.288 -2.855,1.124c-1.081,-0.164 -1.998,-0.89 -2.405,-1.901c-0.407,-1.019 -0.234,-2.169 0.45,-3.024c10.001,-12.589 22.85,-22.62 37.489,-29.29l0.009,-0.009Z" />
        <path id="20" opacity="0.1"
            d="M14.625,188.142c-0,1.694 -1.376,3.059 -3.063,3.059c-1.687,-0 -3.063,-1.375 -3.063,-3.059l0,-41.542c0,-1.097 0.588,-2.108 1.532,-2.652c0.951,-0.544 2.119,-0.544 3.062,0c0.953,0.544 1.532,1.555 1.532,2.652l-0,41.542Z" />
        <path id="21" opacity="0.1"
            d="M17.044,250.861c21.232,26.707 55.105,40.09 88.883,35.13c1.081,-0.155 2.172,0.269 2.846,1.132c0.684,0.855 0.848,2.013 0.45,3.033c-0.407,1.019 -1.324,1.745 -2.406,1.901c-35.949,5.278 -71.984,-8.96 -94.583,-37.377c-0.684,-0.856 -0.857,-2.013 -0.45,-3.024c0.407,-1.02 1.315,-1.746 2.405,-1.901c1.082,-0.164 2.172,0.267 2.855,1.123l-0,-0.017Z" />
        <path id="22" opacity="0.1"
            d="M170.123,251.638c0.407,1.02 0.233,2.169 -0.451,3.025c-10.001,12.588 -22.849,22.619 -37.488,29.289c-0.995,0.459 -2.163,0.346 -3.055,-0.293c-0.891,-0.64 -1.375,-1.694 -1.271,-2.783c0.103,-1.088 0.778,-2.038 1.782,-2.497c13.757,-6.264 25.834,-15.699 35.231,-27.527c0.683,-0.855 1.765,-1.288 2.855,-1.124c1.082,0.165 1.999,0.891 2.405,1.901l-0.008,0.009Z" />
        <path id="23" opacity="0.1"
            d="M169.303,190.397c-1.695,-0 -3.063,1.373 -3.063,3.058l0,31.545c0,1.694 1.376,3.059 3.063,3.059c1.687,-0 3.063,-1.374 3.063,-3.059l-0,-31.545c-0,-1.693 -1.376,-3.058 -3.063,-3.058Z" />
        <path id="24" opacity="0.1"
            d="M90.191,364.357c-1.691,-0 -3.055,1.373 -3.055,3.058l-0,3.231c-0,1.694 1.372,3.059 3.055,3.059c1.682,-0 3.055,-1.374 3.055,-3.059l-0,-3.231c-0,-1.693 -1.373,-3.058 -3.055,-3.058Z" />
        <path id="25-32"
            d="M87.136,315.644l-0,39.873c-0,1.693 1.372,3.059 3.055,3.059c1.682,-0 3.055,-1.375 3.055,-3.059l-0,-39.873c-0,-1.097 -0.587,-2.108 -1.527,-2.653c-0.95,-0.544 -2.115,-0.544 -3.055,0c-0.949,0.545 -1.528,1.556 -1.528,2.653Z" style="fill: url(#gradient-25-32);"/>
    </g>
</svg>
