<svg xmlns="http://www.w3.org/2000/svg" width="182" height="382" viewBox="0 0 182 382" id="(1)_15">
    <defs>
        <linearGradient id="gradient-7-14" x1="0%" y1="100%" x2="0%" y2="0%">
            <stop id="grad-7" offset="0" stop-color="white" stop-opacity="1"></stop>
            <stop id="grad-8" offset="0.1429" stop-color="white" stop-opacity="1"></stop>
            <stop id="grad-9" offset="0.2857" stop-color="white" stop-opacity="1"></stop>
            <stop id="grad-10" offset="0.4286" stop-color="white" stop-opacity="1"></stop>
            <stop id="grad-11" offset="0.5714" stop-color="white" stop-opacity="1"></stop>
            <stop id="grad-12" offset="0.7143" stop-color="white" stop-opacity="1"></stop>
            <stop id="grad-13" offset="0.8571" stop-color="white" stop-opacity="1"></stop>
            <stop id="grad-14" offset="1" stop-color="white" stop-opacity="1"></stop>
        </linearGradient>
    </defs>
    <g fill="white">
        <path id="0" opacity="1"
            d="M9.704,68.077L9.704,32.177C9.704,20.184 19.241,10.363 31.233,10.01C43.226,9.657 53.314,18.909 54.021,30.885C54.038,31.221 53.917,31.548 53.693,31.798C53.461,32.039 53.142,32.177 52.806,32.177L49.136,32.177C48.498,32.177 47.964,31.677 47.921,31.04C47.335,22.691 40.383,16.109 31.888,16.109C23.014,16.109 15.82,23.303 15.82,32.177L15.82,68.077C15.82,76.951 23.014,84.145 31.888,84.145C40.762,84.145 47.955,76.951 47.955,68.077L47.955,57.696C47.955,57.024 48.498,56.472 49.179,56.472L52.84,56.472C53.512,56.472 54.064,57.015 54.064,57.696L54.064,68.077C54.064,76.003 49.834,83.318 42.976,87.281C36.118,91.244 27.658,91.244 20.8,87.281C13.934,83.318 9.704,75.994 9.704,68.077Z" />
        <path id="1" opacity="1"
            d="M120.51,63.373C119.812,64.208 119.605,65.354 119.976,66.379C120.346,67.405 121.242,68.154 122.31,68.344C123.379,68.533 124.481,68.137 125.179,67.301L158.891,27.128C159.976,25.836 159.804,23.914 158.512,22.829C157.22,21.743 155.298,21.916 154.213,23.208L120.51,63.373Z" />
        <path id="2" opacity="1"
            d="M123.153,287.927C112.9,291.329 102.057,293.12 91,293.12C60.17,293.12 31.01,279.2 11.63,255.23C9.6,252.73 8.5,249.61 8.5,246.4L8.5,231.182L14.61,231.182L14.61,246.4C14.61,248.21 15.23,249.97 16.37,251.39C34.6,273.91 62.02,287.01 91,287.01C101.316,287.01 111.435,285.35 121.011,282.196L123.153,287.927Z" />
        <path id="3" opacity="1"
            d="M121.011,282.196C138.337,276.49 153.889,265.893 165.63,251.39C166.77,249.97 167.39,248.21 167.39,246.4L167.39,194.58C167.39,192.9 168.75,191.53 170.44,191.53C172.12,191.53 173.49,192.89 173.49,194.58L173.5,194.58L173.5,246.4C173.5,249.61 172.4,252.73 170.37,255.23C157.941,270.603 141.489,281.842 123.153,287.927L121.011,282.196Z" />
        <path id="4" opacity="1"
            d="M27.716,118.88L23.393,114.558C41.74,98.337 65.477,89.123 90.35,88.96C120.93,88.76 150,102.3 169.54,125.83C170.24,126.67 170.43,127.82 170.05,128.84C169.68,129.86 168.78,130.61 167.7,130.79C166.63,130.97 165.54,130.56 164.84,129.73C146.47,107.6 119.14,94.88 90.38,95.06C67.131,95.214 44.927,103.784 27.716,118.88Z" />
        <path id="5" opacity="1"
            d="M8.5,231.182L8.5,135.68C8.5,132.47 9.6,129.35 11.63,126.85C15.231,122.398 19.169,118.292 23.393,114.558L27.716,118.88C23.636,122.459 19.836,126.404 16.37,130.69C15.23,132.1 14.61,133.86 14.61,135.67L14.61,231.182L8.5,231.182Z" />
        <path id="6" opacity="1"
            d="M90.991,371C92.68,371 94.041,369.63 94.041,367.95L94.041,366.115C94.041,364.427 92.671,363.065 90.991,363.065C89.311,363.065 87.941,364.435 87.941,366.115L87.941,367.95C87.941,369.63 89.311,371 90.991,371Z" />
        <path id="7-14" style="fill: url(#gradient-7-14);"
            d="M90.991,356.73C92.68,356.73 94.041,355.36 94.041,353.68L94.041,311.801C94.041,310.112 92.671,308.751 90.991,308.751C89.311,308.751 87.941,310.121 87.941,311.801L87.941,353.68C87.941,355.368 89.311,356.73 90.991,356.73Z" />
    </g>
</svg>