<svg xmlns="http://www.w3.org/2000/svg" width="130" height="130" viewBox="0 0 130 130" id="(4a) Pro">
  <rect id="4" width="8" height="8" x="40" y="0" opacity=".1" rx="2"/>
  <rect id="5" width="8" height="8" x="50" y="0" opacity=".1" rx="2"/>
  <rect id="6" width="8" height="8" x="60" y="0" opacity=".1" rx="2"/>
  <rect id="7" width="8" height="8" x="70" y="0" opacity=".1" rx="2"/>
  <rect id="8" width="8" height="8" x="80" y="0" opacity=".1" rx="2"/>
  <rect id="15" width="8" height="8" x="20" y="10" opacity=".1" rx="2"/>
  <rect id="16" width="8" height="8" x="30" y="10" opacity=".1" rx="2"/>
  <rect id="17" width="8" height="8" x="40" y="10" opacity=".1" rx="2"/>
  <rect id="18" width="8" height="8" x="50" y="10" opacity=".1" rx="2"/>
  <rect id="19" width="8" height="8" x="60" y="10" opacity=".1" rx="2"/>
  <rect id="20" width="8" height="8" x="70" y="10" opacity=".1" rx="2"/>
  <rect id="21" width="8" height="8" x="80" y="10" opacity=".1" rx="2"/>
  <rect id="22" width="8" height="8" x="90" y="10" opacity=".1" rx="2"/>
  <rect id="23" width="8" height="8" x="100" y="10" opacity=".1" rx="2"/>
  <rect id="27" width="8" height="8" x="10" y="20" opacity=".1" rx="2"/>
  <rect id="28" width="8" height="8" x="20" y="20" opacity=".1" rx="2"/>
  <rect id="29" width="8" height="8" x="30" y="20" opacity=".1" rx="2"/>
  <rect id="30" width="8" height="8" x="40" y="20" opacity=".1" rx="2"/>
  <rect id="31" width="8" height="8" x="50" y="20" opacity=".1" rx="2"/>
  <rect id="32" width="8" height="8" x="60" y="20" opacity=".1" rx="2"/>
  <rect id="33" width="8" height="8" x="70" y="20" opacity=".1" rx="2"/>
  <rect id="34" width="8" height="8" x="80" y="20" opacity=".1" rx="2"/>
  <rect id="35" width="8" height="8" x="90" y="20" opacity=".1" rx="2"/>
  <rect id="36" width="8" height="8" x="100" y="20" opacity=".1" rx="2"/>
  <rect id="37" width="8" height="8" x="110" y="20" opacity=".1" rx="2"/>
  <rect id="40" width="8" height="8" x="10" y="30" opacity=".1" rx="2"/>
  <rect id="41" width="8" height="8" x="20" y="30" opacity=".1" rx="2"/>
  <rect id="42" width="8" height="8" x="30" y="30" opacity=".1" rx="2"/>
  <rect id="43" width="8" height="8" x="40" y="30" opacity=".1" rx="2"/>
  <rect id="44" width="8" height="8" x="50" y="30" opacity=".1" rx="2"/>
  <rect id="45" width="8" height="8" x="60" y="30" opacity=".1" rx="2"/>
  <rect id="46" width="8" height="8" x="70" y="30" opacity=".1" rx="2"/>
  <rect id="47" width="8" height="8" x="80" y="30" opacity=".1" rx="2"/>
  <rect id="48" width="8" height="8" x="90" y="30" opacity=".1" rx="2"/>
  <rect id="49" width="8" height="8" x="100" y="30" opacity=".1" rx="2"/>
  <rect id="50" width="8" height="8" x="110" y="30" opacity=".1" rx="2"/>
  <rect id="52" width="8" height="8" x="0" y="40" opacity=".1" rx="2"/>
  <rect id="53" width="8" height="8" x="10" y="40" opacity=".1" rx="2"/>
  <rect id="54" width="8" height="8" x="20" y="40" opacity=".1" rx="2"/>
  <rect id="55" width="8" height="8" x="30" y="40" opacity=".1" rx="2"/>
  <rect id="56" width="8" height="8" x="40" y="40" opacity=".1" rx="2"/>
  <rect id="57" width="8" height="8" x="50" y="40" opacity=".1" rx="2"/>
  <rect id="58" width="8" height="8" x="60" y="40" opacity=".1" rx="2"/>
  <rect id="59" width="8" height="8" x="70" y="40" opacity=".1" rx="2"/>
  <rect id="60" width="8" height="8" x="80" y="40" opacity=".1" rx="2"/>
  <rect id="61" width="8" height="8" x="90" y="40" opacity=".1" rx="2"/>
  <rect id="62" width="8" height="8" x="100" y="40" opacity=".1" rx="2"/>
  <rect id="63" width="8" height="8" x="110" y="40" opacity=".1" rx="2"/>
  <rect id="64" width="8" height="8" x="120" y="40" opacity=".1" rx="2"/>
  <rect id="65" width="8" height="8" x="0" y="50" opacity=".1" rx="2"/>
  <rect id="66" width="8" height="8" x="10" y="50" opacity=".1" rx="2"/>
  <rect id="67" width="8" height="8" x="20" y="50" opacity=".1" rx="2"/>
  <rect id="68" width="8" height="8" x="30" y="50" opacity=".1" rx="2"/>
  <rect id="69" width="8" height="8" x="40" y="50" opacity=".1" rx="2"/>
  <rect id="70" width="8" height="8" x="50" y="50" opacity=".1" rx="2"/>
  <rect id="71" width="8" height="8" x="60" y="50" opacity=".1" rx="2"/>
  <rect id="72" width="8" height="8" x="70" y="50" opacity=".1" rx="2"/>
  <rect id="73" width="8" height="8" x="80" y="50" opacity=".1" rx="2"/>
  <rect id="74" width="8" height="8" x="90" y="50" opacity=".1" rx="2"/>
  <rect id="75" width="8" height="8" x="100" y="50" opacity=".1" rx="2"/>
  <rect id="76" width="8" height="8" x="110" y="50" opacity=".1" rx="2"/>
  <rect id="77" width="8" height="8" x="120" y="50" opacity=".1" rx="2"/>
  <rect id="78" width="8" height="8" x="0" y="60" opacity=".1" rx="2"/>
  <rect id="79" width="8" height="8" x="10" y="60" opacity=".1" rx="2"/>
  <rect id="80" width="8" height="8" x="20" y="60" opacity=".1" rx="2"/>
  <rect id="81" width="8" height="8" x="30" y="60" opacity=".1" rx="2"/>
  <rect id="82" width="8" height="8" x="40" y="60" opacity=".1" rx="2"/>
  <rect id="83" width="8" height="8" x="50" y="60" opacity=".1" rx="2"/>
  <rect id="84" width="8" height="8" x="60" y="60" opacity=".1" rx="2"/>
  <rect id="85" width="8" height="8" x="70" y="60" opacity=".1" rx="2"/>
  <rect id="86" width="8" height="8" x="80" y="60" opacity=".1" rx="2"/>
  <rect id="87" width="8" height="8" x="90" y="60" opacity=".1" rx="2"/>
  <rect id="88" width="8" height="8" x="100" y="60" opacity=".1" rx="2"/>
  <rect id="89" width="8" height="8" x="110" y="60" opacity=".1" rx="2"/>
  <rect id="90" width="8" height="8" x="120" y="60" opacity=".1" rx="2"/>
  <rect id="91" width="8" height="8" x="0" y="70" opacity=".1" rx="2"/>
  <rect id="92" width="8" height="8" x="10" y="70" opacity=".1" rx="2"/>
  <rect id="93" width="8" height="8" x="20" y="70" opacity=".1" rx="2"/>
  <rect id="94" width="8" height="8" x="30" y="70" opacity=".1" rx="2"/>
  <rect id="95" width="8" height="8" x="40" y="70" opacity=".1" rx="2"/>
  <rect id="96" width="8" height="8" x="50" y="70" opacity=".1" rx="2"/>
  <rect id="97" width="8" height="8" x="60" y="70" opacity=".1" rx="2"/>
  <rect id="98" width="8" height="8" x="70" y="70" opacity=".1" rx="2"/>
  <rect id="99" width="8" height="8" x="80" y="70" opacity=".1" rx="2"/>
  <rect id="100" width="8" height="8" x="90" y="70" opacity=".1" rx="2"/>
  <rect id="101" width="8" height="8" x="100" y="70" opacity=".1" rx="2"/>
  <rect id="102" width="8" height="8" x="110" y="70" opacity=".1" rx="2"/>
  <rect id="103" width="8" height="8" x="120" y="70" opacity=".1" rx="2"/>
  <rect id="104" width="8" height="8" x="0" y="80" opacity=".1" rx="2"/>
  <rect id="105" width="8" height="8" x="10" y="80" opacity=".1" rx="2"/>
  <rect id="106" width="8" height="8" x="20" y="80" opacity=".1" rx="2"/>
  <rect id="107" width="8" height="8" x="30" y="80" opacity=".1" rx="2"/>
  <rect id="108" width="8" height="8" x="40" y="80" opacity=".1" rx="2"/>
  <rect id="109" width="8" height="8" x="50" y="80" opacity=".1" rx="2"/>
  <rect id="110" width="8" height="8" x="60" y="80" opacity=".1" rx="2"/>
  <rect id="111" width="8" height="8" x="70" y="80" opacity=".1" rx="2"/>
  <rect id="112" width="8" height="8" x="80" y="80" opacity=".1" rx="2"/>
  <rect id="113" width="8" height="8" x="90" y="80" opacity=".1" rx="2"/>
  <rect id="114" width="8" height="8" x="100" y="80" opacity=".1" rx="2"/>
  <rect id="115" width="8" height="8" x="110" y="80" opacity=".1" rx="2"/>
  <rect id="116" width="8" height="8" x="120" y="80" opacity=".1" rx="2"/>
  <rect id="118" width="8" height="8" x="10" y="90" opacity=".1" rx="2"/>
  <rect id="119" width="8" height="8" x="20" y="90" opacity=".1" rx="2"/>
  <rect id="120" width="8" height="8" x="30" y="90" opacity=".1" rx="2"/>
  <rect id="121" width="8" height="8" x="40" y="90" opacity=".1" rx="2"/>
  <rect id="122" width="8" height="8" x="50" y="90" opacity=".1" rx="2"/>
  <rect id="123" width="8" height="8" x="60" y="90" opacity=".1" rx="2"/>
  <rect id="124" width="8" height="8" x="70" y="90" opacity=".1" rx="2"/>
  <rect id="125" width="8" height="8" x="80" y="90" opacity=".1" rx="2"/>
  <rect id="126" width="8" height="8" x="90" y="90" opacity=".1" rx="2"/>
  <rect id="127" width="8" height="8" x="100" y="90" opacity=".1" rx="2"/>
  <rect id="128" width="8" height="8" x="110" y="90" opacity=".1" rx="2"/>
  <rect id="131" width="8" height="8" x="10" y="100" opacity=".1" rx="2"/>
  <rect id="132" width="8" height="8" x="20" y="100" opacity=".1" rx="2"/>
  <rect id="133" width="8" height="8" x="30" y="100" opacity=".1" rx="2"/>
  <rect id="134" width="8" height="8" x="40" y="100" opacity=".1" rx="2"/>
  <rect id="135" width="8" height="8" x="50" y="100" opacity=".1" rx="2"/>
  <rect id="136" width="8" height="8" x="60" y="100" opacity=".1" rx="2"/>
  <rect id="137" width="8" height="8" x="70" y="100" opacity=".1" rx="2"/>
  <rect id="138" width="8" height="8" x="80" y="100" opacity=".1" rx="2"/>
  <rect id="139" width="8" height="8" x="90" y="100" opacity=".1" rx="2"/>
  <rect id="140" width="8" height="8" x="100" y="100" opacity=".1" rx="2"/>
  <rect id="141" width="8" height="8" x="110" y="100" opacity=".1" rx="2"/>
  <rect id="145" width="8" height="8" x="20" y="110" opacity=".1" rx="2"/>
  <rect id="146" width="8" height="8" x="30" y="110" opacity=".1" rx="2"/>
  <rect id="147" width="8" height="8" x="40" y="110" opacity=".1" rx="2"/>
  <rect id="148" width="8" height="8" x="50" y="110" opacity=".1" rx="2"/>
  <rect id="149" width="8" height="8" x="60" y="110" opacity=".1" rx="2"/>
  <rect id="150" width="8" height="8" x="70" y="110" opacity=".1" rx="2"/>
  <rect id="151" width="8" height="8" x="80" y="110" opacity=".1" rx="2"/>
  <rect id="152" width="8" height="8" x="90" y="110" opacity=".1" rx="2"/>
  <rect id="153" width="8" height="8" x="100" y="110" opacity=".1" rx="2"/>
  <rect id="160" width="8" height="8" x="40" y="120" opacity=".1" rx="2"/>
  <rect id="161" width="8" height="8" x="50" y="120" opacity=".1" rx="2"/>
  <rect id="162" width="8" height="8" x="60" y="120" opacity=".1" rx="2"/>
  <rect id="163" width="8" height="8" x="70" y="120" opacity=".1" rx="2"/>
  <rect id="164" width="8" height="8" x="80" y="120" opacity=".1" rx="2"/>
</svg>
